<?xml version="1.0" encoding="utf-8"?>
<!-- created with diagram-js -->
<!DOCTYPE svg PUBLIC "-//W3C//DTD SVG 1.1//EN" "http://www.w3.org/Graphics/SVG/1.1/DTD/svg11.dtd">
<svg xmlns="http://www.w3.org/2000/svg" xmlns:xlink="http://www.w3.org/1999/xlink" width="802" height="512" viewBox="304 204 802 512" version="1.1"><defs><marker id="default-condition-flow-end-_FEA00F-_FEA00F-9kjpy3yf6zseizdkltxk5rdaq-undefined-undefined" viewBox="0 0 20 20" refX="20.65" refY="10" markerWidth="16" markerHeight="16" orient="auto"><g style="fill: rgb(254, 160, 15); stroke-width: 1px; stroke-linecap: round; stroke-dasharray: 10000, 1;"><rect x="9" y="9.15" width="4" height="1.7" style="fill: white;"/><circle cx="16" cy="10" r="4"/><path d="M2 14.5L2 5.5L12 10L2 14.5Z"/></g></marker><marker id="default-response-flow-start-_2192FF-_2192FF-9kjpy3yf6zseizdkltxk5rdaq-undefined-undefined" viewBox="0 0 20 20" refX="-0.65" refY="10" markerWidth="16" markerHeight="16" orient="auto"><circle cx="4" cy="10" r="4" style="fill: rgb(33, 146, 255); stroke-width: 1px; stroke-linecap: round; stroke-dasharray: 10000, 1;"/></marker><marker id="default-response-flow-end-_2192FF-_2192FF-9kjpy3yf6zseizdkltxk5rdaq-undefined-undefined" viewBox="0 0 20 20" refX="20.65" refY="10" markerWidth="16" markerHeight="16" orient="auto"><g style="fill: rgb(33, 146, 255); stroke-width: 1px; stroke-linecap: round; stroke-dasharray: 10000, 1;"><rect x="18" y="9.15" width="2" height="1.7" style="fill: white;"/><path d="M10 14.5L10 5.5L20 10L10 14.5Z"/></g></marker><marker id="default-exclude-flow-end-_FB1818-_FB1818-9kjpy3yf6zseizdkltxk5rdaq-right-to-left-right-to-left" viewBox="0 0 20 20" refX="20.65" refY="10" markerWidth="16" markerHeight="16" orient="auto"><g style="fill: rgb(251, 24, 24); stroke-width: 1px; stroke-linecap: round; stroke-dasharray: 10000, 1;"><rect x="8" y="9.15" width="12" height="1.7" style="fill: white;"/><path d="M2 14.5L2 5.5L12 10L2 14.5Z"/><path d="M13.8 9.6C14.7941 9.6 15.6 8.79411 15.6 7.8C15.6 6.80589 14.7941 6 13.8 6C12.8059 6 12 6.80589 12 7.8C12 8.79411 12.8059 9.6 13.8 9.6ZM13.8 8.4C14.1314 8.4 14.4 8.13137 14.4 7.8C14.4 7.46863 14.1314 7.2 13.8 7.2C13.4686 7.2 13.2 7.46863 13.2 7.8C13.2 8.13137 13.4686 8.4 13.8 8.4ZM12.9485 13.9647L12.1 13.1162L19.1162 6.1L19.9647 6.94852L12.9485 13.9647ZM20 12.2C20 13.1941 19.1941 14 18.2 14C17.2059 14 16.4 13.1941 16.4 12.2C16.4 11.2059 17.2059 10.4 18.2 10.4C19.1941 10.4 20 11.2059 20 12.2ZM18.8 12.2C18.8 12.5314 18.5314 12.8 18.2 12.8C17.8686 12.8 17.6 12.5314 17.6 12.2C17.6 11.8686 17.8686 11.6 18.2 11.6C18.5314 11.6 18.8 11.8686 18.8 12.2Z" transform="translate(12.1, 0) rotate(180, 10, 10)" style="fill-rule: evenodd; clip-rule: evenodd;"/></g></marker><marker id="default-include-flow-end-_2CA81A-_2CA81A-9kjpy3yf6zseizdkltxk5rdaq-undefined-undefined" viewBox="0 0 20 20" refX="20.65" refY="10" markerWidth="16" markerHeight="16" orient="auto"><g style="fill: rgb(44, 168, 26); stroke-width: 1px; stroke-linecap: round; stroke-dasharray: 10000, 1;"><rect x="8" y="9.15" width="12" height="1.7" style="fill: white;"/><path d="M2 14.5L2 5.5L12 10L2 14.5Z"/><path d="M20 10.7H16.7V14H15.3V10.7H12L12 9.3H15.3V6L16.7 6V9.3H20V10.7Z"/></g></marker><marker id="default-milestone-flow-end-_A932D0-_A932D0-9kjpy3yf6zseizdkltxk5rdaq-undefined-undefined" viewBox="0 0 20 20" refX="20.65" refY="10" markerWidth="16" markerHeight="16" orient="auto"><g style="fill: rgb(169, 50, 208); stroke-width: 1px; stroke-linecap: round; stroke-dasharray: 10000, 1;"><rect x="8" y="9.15" width="12" height="1.7" style="fill: white;"/><path d="M-4.801e-07 14.5L-8.66976e-08 5.5L10 10L-4.801e-07 14.5Z"/><path d="M10 9.99925L14.9992 5L19.9985 9.99925L14.9992 14.9985L10 9.99925Z"/><path d="M11.98 9.99919L14.9993 6.97985L18.0187 9.99919L14.9993 13.0185L11.98 9.99919Z" style="fill: white;"/></g></marker><marker id="default-milestone-flow-end-_000000-_000000-9kjpy3yf6zseizdkltxk5rdaq-undefined-undefined" viewBox="0 0 20 20" refX="20.65" refY="10" markerWidth="16" markerHeight="16" orient="auto"><g style="fill: rgb(0, 0, 0); stroke-width: 1px; stroke-linecap: round; stroke-dasharray: 10000, 1;"><rect x="8" y="9.15" width="12" height="1.7" style="fill: white;"/><path d="M-4.801e-07 14.5L-8.66976e-08 5.5L10 10L-4.801e-07 14.5Z"/><path d="M10 9.99925L14.9992 5L19.9985 9.99925L14.9992 14.9985L10 9.99925Z"/><path d="M11.98 9.99919L14.9993 6.97985L18.0187 9.99919L14.9993 13.0185L11.98 9.99919Z" style="fill: white;"/></g></marker><marker id="default-include-flow-end-_000000-_000000-9kjpy3yf6zseizdkltxk5rdaq-undefined-undefined" viewBox="0 0 20 20" refX="20.65" refY="10" markerWidth="16" markerHeight="16" orient="auto"><g style="fill: rgb(0, 0, 0); stroke-width: 1px; stroke-linecap: round; stroke-dasharray: 10000, 1;"><rect x="8" y="9.15" width="12" height="1.7" style="fill: white;"/><path d="M2 14.5L2 5.5L12 10L2 14.5Z"/><path d="M20 10.7H16.7V14H15.3V10.7H12L12 9.3H15.3V6L16.7 6V9.3H20V10.7Z"/></g></marker><marker id="default-exclude-flow-end-_000000-_000000-9kjpy3yf6zseizdkltxk5rdaq-right-to-left-right-to-left" viewBox="0 0 20 20" refX="20.65" refY="10" markerWidth="16" markerHeight="16" orient="auto"><g style="fill: rgb(0, 0, 0); stroke-width: 1px; stroke-linecap: round; stroke-dasharray: 10000, 1;"><rect x="8" y="9.15" width="12" height="1.7" style="fill: white;"/><path d="M2 14.5L2 5.5L12 10L2 14.5Z"/><path d="M13.8 9.6C14.7941 9.6 15.6 8.79411 15.6 7.8C15.6 6.80589 14.7941 6 13.8 6C12.8059 6 12 6.80589 12 7.8C12 8.79411 12.8059 9.6 13.8 9.6ZM13.8 8.4C14.1314 8.4 14.4 8.13137 14.4 7.8C14.4 7.46863 14.1314 7.2 13.8 7.2C13.4686 7.2 13.2 7.46863 13.2 7.8C13.2 8.13137 13.4686 8.4 13.8 8.4ZM12.9485 13.9647L12.1 13.1162L19.1162 6.1L19.9647 6.94852L12.9485 13.9647ZM20 12.2C20 13.1941 19.1941 14 18.2 14C17.2059 14 16.4 13.1941 16.4 12.2C16.4 11.2059 17.2059 10.4 18.2 10.4C19.1941 10.4 20 11.2059 20 12.2ZM18.8 12.2C18.8 12.5314 18.5314 12.8 18.2 12.8C17.8686 12.8 17.6 12.5314 17.6 12.2C17.6 11.8686 17.8686 11.6 18.2 11.6C18.5314 11.6 18.8 11.8686 18.8 12.2Z" transform="translate(12.1, 0) rotate(180, 10, 10)" style="fill-rule: evenodd; clip-rule: evenodd;"/></g></marker><marker id="default-response-flow-start-_000000-_000000-9kjpy3yf6zseizdkltxk5rdaq-undefined-undefined" viewBox="0 0 20 20" refX="-0.65" refY="10" markerWidth="16" markerHeight="16" orient="auto"><circle cx="4" cy="10" r="4" style="fill: rgb(0, 0, 0); stroke-width: 1px; stroke-linecap: round; stroke-dasharray: 10000, 1;"/></marker><marker id="default-response-flow-end-_000000-_000000-9kjpy3yf6zseizdkltxk5rdaq-undefined-undefined" viewBox="0 0 20 20" refX="20.65" refY="10" markerWidth="16" markerHeight="16" orient="auto"><g style="fill: rgb(0, 0, 0); stroke-width: 1px; stroke-linecap: round; stroke-dasharray: 10000, 1;"><rect x="18" y="9.15" width="2" height="1.7" style="fill: white;"/><path d="M10 14.5L10 5.5L20 10L10 14.5Z"/></g></marker><marker id="default-condition-flow-end-_000000-_000000-9kjpy3yf6zseizdkltxk5rdaq-undefined-undefined" viewBox="0 0 20 20" refX="20.65" refY="10" markerWidth="16" markerHeight="16" orient="auto"><g style="fill: rgb(0, 0, 0); stroke-width: 1px; stroke-linecap: round; stroke-dasharray: 10000, 1;"><rect x="9" y="9.15" width="4" height="1.7" style="fill: white;"/><circle cx="16" cy="10" r="4"/><path d="M2 14.5L2 5.5L12 10L2 14.5Z"/></g></marker></defs><g class="djs-group"><g class="djs-element djs-connection" data-element-id="Relation_0zd7uqq" style="display: block;"><g class="djs-visual"><path d="m  1035,560L1035,360 " style="fill: none; stroke-width: 2px; stroke-linejoin: round; stroke: rgb(0, 0, 0); marker-end: url('#default-milestone-flow-end-_000000-_000000-9kjpy3yf6zseizdkltxk5rdaq-undefined-undefined');"/></g><path d="M1035,560L1035,360" class="djs-hit djs-hit-stroke" style="fill: none; stroke-opacity: 0; stroke: white; stroke-width: 15px;"/><rect x="1029" y="354" rx="4" width="12" height="212" class="djs-outline" style="fill: none;"/></g></g><g class="djs-group"><g class="djs-element djs-connection" data-element-id="Relation_1vxhccp" style="display: block;"><g class="djs-visual"><path d="m  375,360L375,560 " style="fill: none; stroke-width: 2px; stroke-linejoin: round; stroke: rgb(0, 0, 0); marker-end: url('#default-include-flow-end-_000000-_000000-9kjpy3yf6zseizdkltxk5rdaq-undefined-undefined');"/></g><path d="M375,360L375,560" class="djs-hit djs-hit-stroke" style="fill: none; stroke-opacity: 0; stroke: white; stroke-width: 15px;"/><rect x="369" y="354" rx="4" width="12" height="212" class="djs-outline" style="fill: none;"/></g></g><g class="djs-group"><g class="djs-element djs-connection" data-element-id="Relation_134kn9e" style="display: block;"><g class="djs-visual"><path d="m  640,635L440,635 " style="fill: none; stroke-width: 2px; stroke-linejoin: round; stroke: rgb(0, 0, 0); marker-end: url('#default-exclude-flow-end-_000000-_000000-9kjpy3yf6zseizdkltxk5rdaq-right-to-left-right-to-left');"/></g><path d="M640,635L440,635" class="djs-hit djs-hit-stroke" style="fill: none; stroke-opacity: 0; stroke: white; stroke-width: 15px;"/><rect x="434" y="629" rx="4" width="212" height="12" class="djs-outline" style="fill: none;"/></g></g><g class="djs-group"><g class="djs-element djs-connection" data-element-id="Relation_1866fl8" style="display: block;"><g class="djs-visual"><path d="m  770,635L970,635 " style="fill: none; stroke-width: 2px; stroke-linejoin: round; stroke: rgb(0, 0, 0); marker-start: url('#default-response-flow-start-_000000-_000000-9kjpy3yf6zseizdkltxk5rdaq-undefined-undefined'); marker-end: url('#default-response-flow-end-_000000-_000000-9kjpy3yf6zseizdkltxk5rdaq-undefined-undefined');"/></g><path d="M770,635L970,635" class="djs-hit djs-hit-stroke" style="fill: none; stroke-opacity: 0; stroke: white; stroke-width: 15px;"/><rect x="764" y="629" rx="4" width="212" height="12" class="djs-outline" style="fill: none;"/></g></g><g class="djs-group"><g class="djs-element djs-connection" data-element-id="Relation_1i87u56" style="display: block;"><g class="djs-visual"><path d="m  705,360L705,560 " style="fill: none; stroke-width: 2px; stroke-linejoin: round; stroke: rgb(0, 0, 0); marker-end: url('#default-condition-flow-end-_000000-_000000-9kjpy3yf6zseizdkltxk5rdaq-undefined-undefined');"/></g><path d="M705,360L705,560" class="djs-hit djs-hit-stroke" style="fill: none; stroke-opacity: 0; stroke: white; stroke-width: 15px;"/><rect x="699" y="354" rx="4" width="12" height="212" class="djs-outline" style="fill: none;"/></g></g><g class="djs-group"><g class="djs-element djs-shape" data-element-id="Event_0xmiqkj" style="display: block;" transform="matrix(1 0 0 1 310 560)"><g class="djs-visual"><rect x="0" y="0" width="130" height="150" rx="7" ry="7" style="fill: white; fill-opacity: 0.35; stroke: black; stroke-width: 2px;"/><path style="fill: none; stroke: black; stroke-width: 2px;" d="M0,30L130,30"/><text lineHeight="1.2" class="djs-label" style="font-family: 'IBM Plex', sans-serif; font-size: 16px; font-weight: normal;"><tspan x="65" y="19.8"/></text><text lineHeight="1.2" class="djs-label" style="font-family: 'IBM Plex', sans-serif; font-size: 16px; font-weight: normal;"><tspan x="17.859375" y="85.2">Inspect piece</tspan><tspan x="49.77083271741867" y="104.4">VLD</tspan></text></g><rect class="djs-hit djs-hit-all" x="0" y="0" width="130" height="150" style="fill: none; stroke-opacity: 0; stroke: white; stroke-width: 15px;"/><rect x="-6" y="-6" rx="4" width="142" height="162" class="djs-outline" style="fill: none;"/></g></g><g class="djs-group"><g class="djs-element djs-shape" data-element-id="Event_0h79sl2" style="display: block;" transform="matrix(1 0 0 1 640 560)"><g class="djs-visual"><rect x="0" y="0" width="130" height="150" rx="7" ry="7" style="fill: white; fill-opacity: 0.35; stroke: black; stroke-width: 2px;"/><path style="fill: none; stroke: black; stroke-width: 2px;" d="M0,30L130,30"/><text lineHeight="1.2" class="djs-label" style="font-family: 'IBM Plex', sans-serif; font-size: 16px; font-weight: normal;"><tspan x="65" y="19.8"/></text><text lineHeight="1.2" class="djs-label" style="font-family: 'IBM Plex', sans-serif; font-size: 16px; font-weight: normal;"><tspan x="26.583332061767578" y="85.2">Heat piece</tspan><tspan x="50.488006591796875" y="104.4">OJX</tspan></text></g><rect class="djs-hit djs-hit-all" x="0" y="0" width="130" height="150" style="fill: none; stroke-opacity: 0; stroke: white; stroke-width: 15px;"/><rect x="-6" y="-6" rx="4" width="142" height="162" class="djs-outline" style="fill: none;"/></g></g><g class="djs-group"><g class="djs-element djs-shape" data-element-id="Event_1etkv2g" style="display: block;" transform="matrix(1 0 0 1 970 560)"><g class="djs-visual"><rect x="0" y="0" width="130" height="150" rx="7" ry="7" style="fill: white; fill-opacity: 0.35; stroke: black; stroke-width: 2px;"/><path style="fill: none; stroke: black; stroke-width: 2px;" d="M0,30L130,30"/><text lineHeight="1.2" class="djs-label" style="font-family: 'IBM Plex', sans-serif; font-size: 16px; font-weight: normal;"><tspan x="65" y="19.8"/></text><text lineHeight="1.2" class="djs-label" style="font-family: 'IBM Plex', sans-serif; font-size: 16px; font-weight: normal;"><tspan x="20.46875" y="85.2">Repair piece</tspan><tspan x="49.89067077636719" y="104.4">HFA</tspan></text></g><rect class="djs-hit djs-hit-all" x="0" y="0" width="130" height="150" style="fill: none; stroke-opacity: 0; stroke: white; stroke-width: 15px;"/><rect x="-6" y="-6" rx="4" width="142" height="162" class="djs-outline" style="fill: none;"/></g></g><g class="djs-group"><g class="djs-element djs-shape" data-element-id="Event_0uu9h4e" style="display: block;" transform="matrix(1 0 0 1 310 210)"><g class="djs-visual"><rect x="0" y="0" width="130" height="150" rx="7" ry="7" style="fill: white; fill-opacity: 0.35; stroke: black; stroke-width: 2px;"/><path style="fill: none; stroke: black; stroke-width: 2px;" d="M0,30L130,30"/><text lineHeight="1.2" class="djs-label" style="font-family: 'IBM Plex', sans-serif; font-size: 16px; font-weight: normal;"><tspan x="65" y="19.8"/></text><text lineHeight="1.2" class="djs-label" style="font-family: 'IBM Plex', sans-serif; font-size: 16px; font-weight: normal;"><tspan x="13.213539123535156" y="85.2">Upgrade piece</tspan><tspan x="50.18229103088379" y="104.4">YPB</tspan></text></g><rect class="djs-hit djs-hit-all" x="0" y="0" width="130" height="150" style="fill: none; stroke-opacity: 0; stroke: white; stroke-width: 15px;"/><rect x="-6" y="-6" rx="4" width="142" height="162" class="djs-outline" style="fill: none;"/></g></g><g class="djs-group"><g class="djs-element djs-shape" data-element-id="Event_1t4nmz7" style="display: block;" transform="matrix(1 0 0 1 640 210)"><g class="djs-visual"><rect x="0" y="0" width="130" height="150" rx="7" ry="7" style="fill: white; fill-opacity: 0.35; stroke: black; stroke-width: 2px;"/><path style="fill: none; stroke: black; stroke-width: 2px;" d="M0,30L130,30"/><text lineHeight="1.2" class="djs-label" style="font-family: 'IBM Plex', sans-serif; font-size: 16px; font-weight: normal;"><tspan x="65" y="19.8"/></text><text lineHeight="1.2" class="djs-label" style="font-family: 'IBM Plex', sans-serif; font-size: 16px; font-weight: normal;"><tspan x="33.18229103088379" y="85.2">Fix piece</tspan><tspan x="50.270833015441895" y="104.4">TQS</tspan></text></g><rect class="djs-hit djs-hit-all" x="0" y="0" width="130" height="150" style="fill: none; stroke-opacity: 0; stroke: white; stroke-width: 15px;"/><rect x="-6" y="-6" rx="4" width="142" height="162" class="djs-outline" style="fill: none;"/></g></g><g class="djs-group"><g class="djs-element djs-shape" data-element-id="Event_0oqka7s" style="display: block;" transform="matrix(1 0 0 1 970 210)"><g class="djs-visual"><rect x="0" y="0" width="130" height="150" rx="7" ry="7" style="fill: white; fill-opacity: 0.35; stroke: black; stroke-width: 2px;"/><path style="fill: none; stroke: black; stroke-width: 2px;" d="M0,30L130,30"/><text lineHeight="1.2" class="djs-label" style="font-family: 'IBM Plex', sans-serif; font-size: 16px; font-weight: normal;"><tspan x="65" y="19.8"/></text><text lineHeight="1.2" class="djs-label" style="font-family: 'IBM Plex', sans-serif; font-size: 16px; font-weight: normal;"><tspan x="25.416664123535156" y="85.2">Bake piece</tspan><tspan x="45.44791603088379" y="104.4">NWG</tspan></text></g><rect class="djs-hit djs-hit-all" x="0" y="0" width="130" height="150" style="fill: none; stroke-opacity: 0; stroke: white; stroke-width: 15px;"/><rect x="-6" y="-6" rx="4" width="142" height="162" class="djs-outline" style="fill: none;"/></g></g></svg>