<?xml version="1.0" encoding="utf-8"?>
<!-- created with diagram-js -->
<!DOCTYPE svg PUBLIC "-//W3C//DTD SVG 1.1//EN" "http://www.w3.org/Graphics/SVG/1.1/DTD/svg11.dtd">
<svg xmlns="http://www.w3.org/2000/svg" xmlns:xlink="http://www.w3.org/1999/xlink" width="802" height="512" viewBox="304 204 802 512" version="1.1"><defs><marker id="default-condition-flow-end-_FEA00F-_FEA00F-a3wcemzrqgaih600set9qki08-undefined-undefined" viewBox="0 0 20 20" refX="20.65" refY="10" markerWidth="16" markerHeight="16" orient="auto"><g style="fill: rgb(254, 160, 15); stroke-width: 1px; stroke-linecap: round; stroke-dasharray: 10000, 1;"><rect x="9" y="9.15" width="4" height="1.7" style="fill: white;"/><circle cx="16" cy="10" r="4"/><path d="M2 14.5L2 5.5L12 10L2 14.5Z"/></g></marker><marker id="default-response-flow-start-_2192FF-_2192FF-a3wcemzrqgaih600set9qki08-undefined-undefined" viewBox="0 0 20 20" refX="-0.65" refY="10" markerWidth="16" markerHeight="16" orient="auto"><circle cx="4" cy="10" r="4" style="fill: rgb(33, 146, 255); stroke-width: 1px; stroke-linecap: round; stroke-dasharray: 10000, 1;"/></marker><marker id="default-response-flow-end-_2192FF-_2192FF-a3wcemzrqgaih600set9qki08-undefined-undefined" viewBox="0 0 20 20" refX="20.65" refY="10" markerWidth="16" markerHeight="16" orient="auto"><g style="fill: rgb(33, 146, 255); stroke-width: 1px; stroke-linecap: round; stroke-dasharray: 10000, 1;"><rect x="18" y="9.15" width="2" height="1.7" style="fill: white;"/><path d="M10 14.5L10 5.5L20 10L10 14.5Z"/></g></marker><marker id="default-exclude-flow-end-_FB1818-_FB1818-a3wcemzrqgaih600set9qki08-left-to-right-left-to-right" viewBox="0 0 20 20" refX="20.65" refY="10" markerWidth="16" markerHeight="16" orient="auto"><g style="fill: rgb(251, 24, 24); stroke-width: 1px; stroke-linecap: round; stroke-dasharray: 10000, 1;"><rect x="8" y="9.15" width="12" height="1.7" style="fill: white;"/><path d="M2 14.5L2 5.5L12 10L2 14.5Z"/><path d="M13.8 9.6C14.7941 9.6 15.6 8.79411 15.6 7.8C15.6 6.80589 14.7941 6 13.8 6C12.8059 6 12 6.80589 12 7.8C12 8.79411 12.8059 9.6 13.8 9.6ZM13.8 8.4C14.1314 8.4 14.4 8.13137 14.4 7.8C14.4 7.46863 14.1314 7.2 13.8 7.2C13.4686 7.2 13.2 7.46863 13.2 7.8C13.2 8.13137 13.4686 8.4 13.8 8.4ZM12.9485 13.9647L12.1 13.1162L19.1162 6.1L19.9647 6.94852L12.9485 13.9647ZM20 12.2C20 13.1941 19.1941 14 18.2 14C17.2059 14 16.4 13.1941 16.4 12.2C16.4 11.2059 17.2059 10.4 18.2 10.4C19.1941 10.4 20 11.2059 20 12.2ZM18.8 12.2C18.8 12.5314 18.5314 12.8 18.2 12.8C17.8686 12.8 17.6 12.5314 17.6 12.2C17.6 11.8686 17.8686 11.6 18.2 11.6C18.5314 11.6 18.8 11.8686 18.8 12.2Z" transform=" " style="fill-rule: evenodd; clip-rule: evenodd;"/></g></marker><marker id="default-include-flow-end-_2CA81A-_2CA81A-a3wcemzrqgaih600set9qki08-undefined-undefined" viewBox="0 0 20 20" refX="20.65" refY="10" markerWidth="16" markerHeight="16" orient="auto"><g style="fill: rgb(44, 168, 26); stroke-width: 1px; stroke-linecap: round; stroke-dasharray: 10000, 1;"><rect x="8" y="9.15" width="12" height="1.7" style="fill: white;"/><path d="M2 14.5L2 5.5L12 10L2 14.5Z"/><path d="M20 10.7H16.7V14H15.3V10.7H12L12 9.3H15.3V6L16.7 6V9.3H20V10.7Z"/></g></marker><marker id="default-milestone-flow-end-_A932D0-_A932D0-a3wcemzrqgaih600set9qki08-undefined-undefined" viewBox="0 0 20 20" refX="20.65" refY="10" markerWidth="16" markerHeight="16" orient="auto"><g style="fill: rgb(169, 50, 208); stroke-width: 1px; stroke-linecap: round; stroke-dasharray: 10000, 1;"><rect x="8" y="9.15" width="12" height="1.7" style="fill: white;"/><path d="M-4.801e-07 14.5L-8.66976e-08 5.5L10 10L-4.801e-07 14.5Z"/><path d="M10 9.99925L14.9992 5L19.9985 9.99925L14.9992 14.9985L10 9.99925Z"/><path d="M11.98 9.99919L14.9993 6.97985L18.0187 9.99919L14.9993 13.0185L11.98 9.99919Z" style="fill: white;"/></g></marker><marker id="default-milestone-flow-end-_000000-_000000-a3wcemzrqgaih600set9qki08-undefined-undefined" viewBox="0 0 20 20" refX="20.65" refY="10" markerWidth="16" markerHeight="16" orient="auto"><g style="fill: rgb(0, 0, 0); stroke-width: 1px; stroke-linecap: round; stroke-dasharray: 10000, 1;"><rect x="8" y="9.15" width="12" height="1.7" style="fill: white;"/><path d="M-4.801e-07 14.5L-8.66976e-08 5.5L10 10L-4.801e-07 14.5Z"/><path d="M10 9.99925L14.9992 5L19.9985 9.99925L14.9992 14.9985L10 9.99925Z"/><path d="M11.98 9.99919L14.9993 6.97985L18.0187 9.99919L14.9993 13.0185L11.98 9.99919Z" style="fill: white;"/></g></marker><marker id="default-include-flow-end-_000000-_000000-a3wcemzrqgaih600set9qki08-undefined-undefined" viewBox="0 0 20 20" refX="20.65" refY="10" markerWidth="16" markerHeight="16" orient="auto"><g style="fill: rgb(0, 0, 0); stroke-width: 1px; stroke-linecap: round; stroke-dasharray: 10000, 1;"><rect x="8" y="9.15" width="12" height="1.7" style="fill: white;"/><path d="M2 14.5L2 5.5L12 10L2 14.5Z"/><path d="M20 10.7H16.7V14H15.3V10.7H12L12 9.3H15.3V6L16.7 6V9.3H20V10.7Z"/></g></marker><marker id="default-exclude-flow-end-_000000-_000000-a3wcemzrqgaih600set9qki08-left-to-right-left-to-right" viewBox="0 0 20 20" refX="20.65" refY="10" markerWidth="16" markerHeight="16" orient="auto"><g style="fill: rgb(0, 0, 0); stroke-width: 1px; stroke-linecap: round; stroke-dasharray: 10000, 1;"><rect x="8" y="9.15" width="12" height="1.7" style="fill: white;"/><path d="M2 14.5L2 5.5L12 10L2 14.5Z"/><path d="M13.8 9.6C14.7941 9.6 15.6 8.79411 15.6 7.8C15.6 6.80589 14.7941 6 13.8 6C12.8059 6 12 6.80589 12 7.8C12 8.79411 12.8059 9.6 13.8 9.6ZM13.8 8.4C14.1314 8.4 14.4 8.13137 14.4 7.8C14.4 7.46863 14.1314 7.2 13.8 7.2C13.4686 7.2 13.2 7.46863 13.2 7.8C13.2 8.13137 13.4686 8.4 13.8 8.4ZM12.9485 13.9647L12.1 13.1162L19.1162 6.1L19.9647 6.94852L12.9485 13.9647ZM20 12.2C20 13.1941 19.1941 14 18.2 14C17.2059 14 16.4 13.1941 16.4 12.2C16.4 11.2059 17.2059 10.4 18.2 10.4C19.1941 10.4 20 11.2059 20 12.2ZM18.8 12.2C18.8 12.5314 18.5314 12.8 18.2 12.8C17.8686 12.8 17.6 12.5314 17.6 12.2C17.6 11.8686 17.8686 11.6 18.2 11.6C18.5314 11.6 18.8 11.8686 18.8 12.2Z" transform=" " style="fill-rule: evenodd; clip-rule: evenodd;"/></g></marker><marker id="default-response-flow-start-_000000-_000000-a3wcemzrqgaih600set9qki08-undefined-undefined" viewBox="0 0 20 20" refX="-0.65" refY="10" markerWidth="16" markerHeight="16" orient="auto"><circle cx="4" cy="10" r="4" style="fill: rgb(0, 0, 0); stroke-width: 1px; stroke-linecap: round; stroke-dasharray: 10000, 1;"/></marker><marker id="default-response-flow-end-_000000-_000000-a3wcemzrqgaih600set9qki08-undefined-undefined" viewBox="0 0 20 20" refX="20.65" refY="10" markerWidth="16" markerHeight="16" orient="auto"><g style="fill: rgb(0, 0, 0); stroke-width: 1px; stroke-linecap: round; stroke-dasharray: 10000, 1;"><rect x="18" y="9.15" width="2" height="1.7" style="fill: white;"/><path d="M10 14.5L10 5.5L20 10L10 14.5Z"/></g></marker><marker id="default-condition-flow-end-_000000-_000000-a3wcemzrqgaih600set9qki08-undefined-undefined" viewBox="0 0 20 20" refX="20.65" refY="10" markerWidth="16" markerHeight="16" orient="auto"><g style="fill: rgb(0, 0, 0); stroke-width: 1px; stroke-linecap: round; stroke-dasharray: 10000, 1;"><rect x="9" y="9.15" width="4" height="1.7" style="fill: white;"/><circle cx="16" cy="10" r="4"/><path d="M2 14.5L2 5.5L12 10L2 14.5Z"/></g></marker><marker id="proposed-milestone-flow-end-white-_000000-a3wcemzrqgaih600set9qki08-left-to-right-left-to-right" viewBox="0 0 20 20" refX="20.65" refY="10" markerWidth="10" markerHeight="10" orient="auto"><g transform="" style="fill: white; stroke-width: 1px; stroke-linecap: round; stroke-dasharray: 10000, 1;"><circle cx="10" cy="10" r="9" style="fill: white; stroke: rgb(0, 0, 0); stroke-width: 2px;"/><circle cx="6.5" cy="10" r="2.1" style="stroke: rgb(0, 0, 0); stroke-width: 2px;"/><path d="M9.5 10H12.5M15.5 12.5V10H12.5M12.5 10V12.5" style="stroke: rgb(0, 0, 0); stroke-width: 2px; stroke-linecap: round; stroke-linejoin: round;"/></g></marker><marker id="proposed-milestone-flow-start-white-_000000-a3wcemzrqgaih600set9qki08-left-to-right-left-to-right" viewBox="0 0 20 20" refX="1.5" refY="4.7" markerWidth="20" markerHeight="20" orient="auto"><g style="fill: white; stroke-width: 1px; stroke-linecap: round; stroke-dasharray: 10000, 1; stroke: rgb(0, 0, 0);"><path d="M3,1 l17,8.5 l-17,8.5 z" transform="scale(0.5)" style="stroke-width: 2;"/><g transform=" "><path d="M3 2.7V4.8" style="stroke-width: 1px; stroke-linecap: round;"/><circle cx="3" cy="6.5" r="0.1"/></g></g></marker><marker id="proposed-include-flow-start-_000000-_000000-a3wcemzrqgaih600set9qki08-undefined-undefined" viewBox="0 0 20 20" refX="0" refY="7.22" markerWidth="10" markerHeight="10" orient="auto"><path d="M0 24V0L24 12L0 24Z" transform="scale(0.6)" style="fill: rgb(0, 0, 0); stroke-width: 1px; stroke-linecap: round; stroke-dasharray: 10000, 1; stroke: rgb(0, 0, 0);"/></marker><marker id="proposed-include-flow-end-white-_000000-a3wcemzrqgaih600set9qki08-top-to-bottom-top-to-bottom" viewBox="0 0 20 20" refX="21" refY="10" markerWidth="10" markerHeight="10" orient="auto"><g transform="rotate(270, 10, 10)" style="fill: white; stroke-width: 2; stroke-linecap: round; stroke-dasharray: 10000, 1; stroke: rgb(0, 0, 0);"><circle cx="10" cy="10" r="9"/><path d="M16 12L8 12M12 16L12 8" transform="translate(-2, -2)" style="fill: rgb(0, 0, 0); stroke-width: 2px; stroke-linecap: round;"/></g></marker><marker id="proposed-exclude-flow-start-_000000-_000000-a3wcemzrqgaih600set9qki08-undefined-undefined" viewBox="0 0 20 20" refX="0" refY="7.22" markerWidth="10" markerHeight="10" orient="auto"><path d="M0 24V0L24 12L0 24Z" transform="scale(0.6)" style="fill: rgb(0, 0, 0); stroke-width: 1px; stroke-linecap: round; stroke-dasharray: 10000, 1; stroke: rgb(0, 0, 0);"/></marker><marker id="proposed-exclude-flow-end-white-_000000-a3wcemzrqgaih600set9qki08-left-to-right-left-to-right" viewBox="0 0 20 20" refX="21" refY="10" markerWidth="10" markerHeight="10" orient="auto"><g transform="" style="fill: white; stroke-width: 2; stroke-linecap: round; stroke-dasharray: 10000, 1; stroke: rgb(0, 0, 0);"><circle cx="10" cy="10" r="9"/><path d="M16 12H10" transform="translate(-3, -2)" style="fill: rgb(0, 0, 0); stroke-width: 2px; stroke-linecap: round;"/></g></marker><marker id="proposed-response-flow-start-_000000-_000000-a3wcemzrqgaih600set9qki08-undefined-undefined" viewBox="0 0 20 20" refX="0" refY="7.22" markerWidth="10" markerHeight="10" orient="auto"><path d="M0 24V0L24 12L0 24Z" transform="scale(0.6)" style="fill: rgb(0, 0, 0); stroke-width: 1px; stroke-linecap: round; stroke-dasharray: 10000, 1; stroke: rgb(0, 0, 0);"/></marker><marker id="proposed-response-flow-end-white-_000000-a3wcemzrqgaih600set9qki08-bottom-to-top-bottom-to-top" viewBox="0 0 20 20" refX="21" refY="10" markerWidth="10" markerHeight="10" orient="auto"><g transform="rotate(90, 10, 10)" style="fill: white; stroke-width: 2; stroke-linecap: round; stroke-dasharray: 10000, 1; stroke: rgb(0, 0, 0);"><circle cx="10" cy="10" r="9"/><path d="M12 0.8V5" transform="translate(-2, 5)" style="stroke-width: 2.3px; stroke-linecap: round;"/><circle cx="10" cy="14" r="0.21"/></g></marker><marker id="proposed-condition-flow-end-white-_000000-a3wcemzrqgaih600set9qki08-right-to-left-right-to-left" viewBox="0 0 20 20" refX="20.65" refY="10" markerWidth="10" markerHeight="10" orient="auto"><g transform="rotate(180, 10, 10)" style="fill: white; stroke-width: 1px; stroke-linecap: round; stroke-dasharray: 10000, 1;"><circle cx="10" cy="10" r="9" style="fill: white; stroke: rgb(0, 0, 0); stroke-width: 2px;"/><circle cx="6.5" cy="10" r="2.1" style="stroke: rgb(0, 0, 0); stroke-width: 2px;"/><path d="M9.5 10H12.5M15.5 12.5V10H12.5M12.5 10V12.5" style="stroke: rgb(0, 0, 0); stroke-width: 2px; stroke-linecap: round; stroke-linejoin: round;"/></g></marker><marker id="proposed-condition-flow-start-_000000-_000000-a3wcemzrqgaih600set9qki08-undefined-undefined" viewBox="0 0 20 20" refX="0" refY="7.22" markerWidth="10" markerHeight="10" orient="auto"><path d="M0 24V0L24 12L0 24Z" transform="scale(0.6)" style="fill: rgb(0, 0, 0); stroke-width: 1px; stroke-linecap: round; stroke-dasharray: 10000, 1; stroke: rgb(0, 0, 0);"/></marker><marker id="new-milestone-flow-end-white-_000000-a3wcemzrqgaih600set9qki08-left-to-right-left-to-right" viewBox="0 0 20 20" refX="21" refY="10" markerWidth="10" markerHeight="10" orient="auto"><g transform="" style="fill: black; stroke-width: 2; stroke-linecap: round; stroke-dasharray: 10000, 1; stroke: rgb(0, 0, 0);"><circle cx="10" cy="10" r="9" style="fill: rgb(0, 0, 0);"/><path d="M12 0.8V5" transform="translate(-2, 5)" style="stroke-width: 2.3px; stroke-linecap: round; stroke: white;"/><circle cx="10" cy="14" r="0.21" style="fill: white; stroke: white;"/></g></marker><marker id="new-include-flow-start-_000000-_000000-a3wcemzrqgaih600set9qki08-top-to-bottom-top-to-bottom" viewBox="0 0 20 20" refX="-0.6" refY="10" markerWidth="10" markerHeight="10" orient="auto"><g transform="rotate(270, 10, 10)" style="fill: black; stroke-width: 2; stroke-linecap: round; stroke-dasharray: 10000, 1; stroke: rgb(0, 0, 0);"><rect x="1" y="1" width="18" height="18" rx="1" ry="1" style="fill: rgb(0, 0, 0);"/><path d="M16 12L8 12M12 16L12 8" transform="translate(-2, -2)" style="stroke-width: 2px; stroke-linecap: round; stroke: white;"/></g></marker><marker id="new-exclude-flow-start-_000000-_000000-a3wcemzrqgaih600set9qki08-left-to-right-left-to-right" viewBox="0 0 20 20" refX="-0.6" refY="10" markerWidth="10" markerHeight="10" orient="auto"><g transform="" style="fill: black; stroke-width: 2; stroke-linecap: round; stroke-dasharray: 10000, 1; stroke: rgb(0, 0, 0);"><rect x="1" y="1" width="18" height="18" rx="1" ry="1" style="fill: rgb(0, 0, 0);"/><path d="M16 12H10" transform="translate(-3, -2)" style="stroke-width: 2px; stroke-linecap: round; stroke: white;"/></g></marker><marker id="new-response-flow-start-_000000-_000000-a3wcemzrqgaih600set9qki08-bottom-to-top-bottom-to-top" viewBox="0 0 20 20" refX="-0.6" refY="10" markerWidth="10" markerHeight="10" orient="auto"><g transform="rotate(90, 10, 10)" style="fill: black; stroke-width: 2; stroke-linecap: round; stroke-dasharray: 10000, 1; stroke: rgb(0, 0, 0);"><rect x="1" y="1" width="18" height="18" rx="1" ry="1" style="fill: rgb(0, 0, 0);"/><path d="M12 0.8V5" transform="translate(-2, 5)" style="stroke-width: 2.3px; stroke-linecap: round; stroke: white;"/><circle cx="10" cy="14" r="0.21" style="fill: white; stroke: white;"/></g></marker><marker id="new-condition-flow-end-white-_000000-a3wcemzrqgaih600set9qki08-right-to-left-right-to-left" viewBox="0 0 20 20" refX="21" refY="10" markerWidth="10" markerHeight="10" orient="auto"><circle cx="10" cy="10" r="9" style="fill: white; stroke-width: 2; stroke-linecap: round; stroke-dasharray: 10000, 1; stroke: rgb(0, 0, 0);"/></marker><marker id="default-exclude-flow-end-_000000-_000000-a3wcemzrqgaih600set9qki08-right-to-left-right-to-left" viewBox="0 0 20 20" refX="20.65" refY="10" markerWidth="16" markerHeight="16" orient="auto"><g style="fill: rgb(0, 0, 0); stroke-width: 1px; stroke-linecap: round; stroke-dasharray: 10000, 1;"><rect x="8" y="9.15" width="12" height="1.7" style="fill: white;"/><path d="M2 14.5L2 5.5L12 10L2 14.5Z"/><path d="M13.8 9.6C14.7941 9.6 15.6 8.79411 15.6 7.8C15.6 6.80589 14.7941 6 13.8 6C12.8059 6 12 6.80589 12 7.8C12 8.79411 12.8059 9.6 13.8 9.6ZM13.8 8.4C14.1314 8.4 14.4 8.13137 14.4 7.8C14.4 7.46863 14.1314 7.2 13.8 7.2C13.4686 7.2 13.2 7.46863 13.2 7.8C13.2 8.13137 13.4686 8.4 13.8 8.4ZM12.9485 13.9647L12.1 13.1162L19.1162 6.1L19.9647 6.94852L12.9485 13.9647ZM20 12.2C20 13.1941 19.1941 14 18.2 14C17.2059 14 16.4 13.1941 16.4 12.2C16.4 11.2059 17.2059 10.4 18.2 10.4C19.1941 10.4 20 11.2059 20 12.2ZM18.8 12.2C18.8 12.5314 18.5314 12.8 18.2 12.8C17.8686 12.8 17.6 12.5314 17.6 12.2C17.6 11.8686 17.8686 11.6 18.2 11.6C18.5314 11.6 18.8 11.8686 18.8 12.2Z" transform="translate(12.1, 0) rotate(180, 10, 10)" style="fill-rule: evenodd; clip-rule: evenodd;"/></g></marker><marker id="proposed-milestone-flow-end-white-_000000-a3wcemzrqgaih600set9qki08-right-to-left-right-to-left" viewBox="0 0 20 20" refX="20.65" refY="10" markerWidth="10" markerHeight="10" orient="auto"><g transform="rotate(180, 10, 10)" style="fill: white; stroke-width: 1px; stroke-linecap: round; stroke-dasharray: 10000, 1;"><circle cx="10" cy="10" r="9" style="fill: white; stroke: rgb(0, 0, 0); stroke-width: 2px;"/><circle cx="6.5" cy="10" r="2.1" style="stroke: rgb(0, 0, 0); stroke-width: 2px;"/><path d="M9.5 10H12.5M15.5 12.5V10H12.5M12.5 10V12.5" style="stroke: rgb(0, 0, 0); stroke-width: 2px; stroke-linecap: round; stroke-linejoin: round;"/></g></marker><marker id="proposed-milestone-flow-start-white-_000000-a3wcemzrqgaih600set9qki08-right-to-left-right-to-left" viewBox="0 0 20 20" refX="1.5" refY="4.7" markerWidth="20" markerHeight="20" orient="auto"><g style="fill: white; stroke-width: 1px; stroke-linecap: round; stroke-dasharray: 10000, 1; stroke: rgb(0, 0, 0);"><path d="M3,1 l17,8.5 l-17,8.5 z" transform="scale(0.5)" style="stroke-width: 2;"/><g transform="translate(-14, -10.5) rotate(180, 10, 10)"><path d="M3 2.7V4.8" style="stroke-width: 1px; stroke-linecap: round;"/><circle cx="3" cy="6.5" r="0.1"/></g></g></marker><marker id="proposed-include-flow-end-white-_000000-a3wcemzrqgaih600set9qki08-left-to-right-left-to-right" viewBox="0 0 20 20" refX="21" refY="10" markerWidth="10" markerHeight="10" orient="auto"><g transform="" style="fill: white; stroke-width: 2; stroke-linecap: round; stroke-dasharray: 10000, 1; stroke: rgb(0, 0, 0);"><circle cx="10" cy="10" r="9"/><path d="M16 12L8 12M12 16L12 8" transform="translate(-2, -2)" style="fill: rgb(0, 0, 0); stroke-width: 2px; stroke-linecap: round;"/></g></marker><marker id="proposed-exclude-flow-end-white-_000000-a3wcemzrqgaih600set9qki08-right-to-left-right-to-left" viewBox="0 0 20 20" refX="21" refY="10" markerWidth="10" markerHeight="10" orient="auto"><g transform="rotate(180, 10, 10)" style="fill: white; stroke-width: 2; stroke-linecap: round; stroke-dasharray: 10000, 1; stroke: rgb(0, 0, 0);"><circle cx="10" cy="10" r="9"/><path d="M16 12H10" transform="translate(-3, -2)" style="fill: rgb(0, 0, 0); stroke-width: 2px; stroke-linecap: round;"/></g></marker><marker id="proposed-response-flow-end-white-_000000-a3wcemzrqgaih600set9qki08-right-to-left-right-to-left" viewBox="0 0 20 20" refX="21" refY="10" markerWidth="10" markerHeight="10" orient="auto"><g transform="rotate(180, 10, 10)" style="fill: white; stroke-width: 2; stroke-linecap: round; stroke-dasharray: 10000, 1; stroke: rgb(0, 0, 0);"><circle cx="10" cy="10" r="9"/><path d="M12 0.8V5" transform="translate(-2, 5)" style="stroke-width: 2.3px; stroke-linecap: round;"/><circle cx="10" cy="14" r="0.21"/></g></marker><marker id="proposed-condition-flow-end-white-_000000-a3wcemzrqgaih600set9qki08-bottom-to-top-bottom-to-top" viewBox="0 0 20 20" refX="20.65" refY="10" markerWidth="10" markerHeight="10" orient="auto"><g transform="rotate(90, 10, 10)" style="fill: white; stroke-width: 1px; stroke-linecap: round; stroke-dasharray: 10000, 1;"><circle cx="10" cy="10" r="9" style="fill: white; stroke: rgb(0, 0, 0); stroke-width: 2px;"/><circle cx="6.5" cy="10" r="2.1" style="stroke: rgb(0, 0, 0); stroke-width: 2px;"/><path d="M9.5 10H12.5M15.5 12.5V10H12.5M12.5 10V12.5" style="stroke: rgb(0, 0, 0); stroke-width: 2px; stroke-linecap: round; stroke-linejoin: round;"/></g></marker><marker id="proposed-condition-flow-end-white-_000000-a3wcemzrqgaih600set9qki08-left-to-right-left-to-right" viewBox="0 0 20 20" refX="20.65" refY="10" markerWidth="10" markerHeight="10" orient="auto"><g transform="" style="fill: white; stroke-width: 1px; stroke-linecap: round; stroke-dasharray: 10000, 1;"><circle cx="10" cy="10" r="9" style="fill: white; stroke: rgb(0, 0, 0); stroke-width: 2px;"/><circle cx="6.5" cy="10" r="2.1" style="stroke: rgb(0, 0, 0); stroke-width: 2px;"/><path d="M9.5 10H12.5M15.5 12.5V10H12.5M12.5 10V12.5" style="stroke: rgb(0, 0, 0); stroke-width: 2px; stroke-linecap: round; stroke-linejoin: round;"/></g></marker><marker id="proposed-response-flow-end-white-_000000-a3wcemzrqgaih600set9qki08-left-to-right-left-to-right" viewBox="0 0 20 20" refX="21" refY="10" markerWidth="10" markerHeight="10" orient="auto"><g transform="" style="fill: white; stroke-width: 2; stroke-linecap: round; stroke-dasharray: 10000, 1; stroke: rgb(0, 0, 0);"><circle cx="10" cy="10" r="9"/><path d="M12 0.8V5" transform="translate(-2, 5)" style="stroke-width: 2.3px; stroke-linecap: round;"/><circle cx="10" cy="14" r="0.21"/></g></marker><marker id="proposed-exclude-flow-end-white-_000000-a3wcemzrqgaih600set9qki08-top-to-bottom-top-to-bottom" viewBox="0 0 20 20" refX="21" refY="10" markerWidth="10" markerHeight="10" orient="auto"><g transform="rotate(270, 10, 10)" style="fill: white; stroke-width: 2; stroke-linecap: round; stroke-dasharray: 10000, 1; stroke: rgb(0, 0, 0);"><circle cx="10" cy="10" r="9"/><path d="M16 12H10" transform="translate(-3, -2)" style="fill: rgb(0, 0, 0); stroke-width: 2px; stroke-linecap: round;"/></g></marker><marker id="proposed-include-flow-end-white-_000000-a3wcemzrqgaih600set9qki08-right-to-left-right-to-left" viewBox="0 0 20 20" refX="21" refY="10" markerWidth="10" markerHeight="10" orient="auto"><g transform="rotate(180, 10, 10)" style="fill: white; stroke-width: 2; stroke-linecap: round; stroke-dasharray: 10000, 1; stroke: rgb(0, 0, 0);"><circle cx="10" cy="10" r="9"/><path d="M16 12L8 12M12 16L12 8" transform="translate(-2, -2)" style="fill: rgb(0, 0, 0); stroke-width: 2px; stroke-linecap: round;"/></g></marker><marker id="proposed-milestone-flow-end-white-_000000-a3wcemzrqgaih600set9qki08-top-to-bottom-top-to-bottom" viewBox="0 0 20 20" refX="20.65" refY="10" markerWidth="10" markerHeight="10" orient="auto"><g transform="rotate(270, 10, 10)" style="fill: white; stroke-width: 1px; stroke-linecap: round; stroke-dasharray: 10000, 1;"><circle cx="10" cy="10" r="9" style="fill: white; stroke: rgb(0, 0, 0); stroke-width: 2px;"/><circle cx="6.5" cy="10" r="2.1" style="stroke: rgb(0, 0, 0); stroke-width: 2px;"/><path d="M9.5 10H12.5M15.5 12.5V10H12.5M12.5 10V12.5" style="stroke: rgb(0, 0, 0); stroke-width: 2px; stroke-linecap: round; stroke-linejoin: round;"/></g></marker><marker id="proposed-milestone-flow-start-white-_000000-a3wcemzrqgaih600set9qki08-top-to-bottom-top-to-bottom" viewBox="0 0 20 20" refX="1.5" refY="4.7" markerWidth="20" markerHeight="20" orient="auto"><g style="fill: white; stroke-width: 1px; stroke-linecap: round; stroke-dasharray: 10000, 1; stroke: rgb(0, 0, 0);"><path d="M3,1 l17,8.5 l-17,8.5 z" transform="scale(0.5)" style="stroke-width: 2;"/><g transform="translate(0.15,-12.2) rotate(270, 10, 10)"><path d="M3 2.7V4.8" style="stroke-width: 1px; stroke-linecap: round;"/><circle cx="3" cy="6.5" r="0.1"/></g></g></marker><marker id="new-milestone-flow-end-white-_000000-a3wcemzrqgaih600set9qki08-top-to-bottom-top-to-bottom" viewBox="0 0 20 20" refX="21" refY="10" markerWidth="10" markerHeight="10" orient="auto"><g transform="rotate(270, 10, 10)" style="fill: black; stroke-width: 2; stroke-linecap: round; stroke-dasharray: 10000, 1; stroke: rgb(0, 0, 0);"><circle cx="10" cy="10" r="9" style="fill: rgb(0, 0, 0);"/><path d="M12 0.8V5" transform="translate(-2, 5)" style="stroke-width: 2.3px; stroke-linecap: round; stroke: white;"/><circle cx="10" cy="14" r="0.21" style="fill: white; stroke: white;"/></g></marker><marker id="new-include-flow-start-_000000-_000000-a3wcemzrqgaih600set9qki08-right-to-left-right-to-left" viewBox="0 0 20 20" refX="-0.6" refY="10" markerWidth="10" markerHeight="10" orient="auto"><g transform="rotate(180, 10, 10)" style="fill: black; stroke-width: 2; stroke-linecap: round; stroke-dasharray: 10000, 1; stroke: rgb(0, 0, 0);"><rect x="1" y="1" width="18" height="18" rx="1" ry="1" style="fill: rgb(0, 0, 0);"/><path d="M16 12L8 12M12 16L12 8" transform="translate(-2, -2)" style="stroke-width: 2px; stroke-linecap: round; stroke: white;"/></g></marker><marker id="new-exclude-flow-start-_000000-_000000-a3wcemzrqgaih600set9qki08-top-to-bottom-top-to-bottom" viewBox="0 0 20 20" refX="-0.6" refY="10" markerWidth="10" markerHeight="10" orient="auto"><g transform="rotate(270, 10, 10)" style="fill: black; stroke-width: 2; stroke-linecap: round; stroke-dasharray: 10000, 1; stroke: rgb(0, 0, 0);"><rect x="1" y="1" width="18" height="18" rx="1" ry="1" style="fill: rgb(0, 0, 0);"/><path d="M16 12H10" transform="translate(-3, -2)" style="stroke-width: 2px; stroke-linecap: round; stroke: white;"/></g></marker><marker id="new-response-flow-start-_000000-_000000-a3wcemzrqgaih600set9qki08-left-to-right-left-to-right" viewBox="0 0 20 20" refX="-0.6" refY="10" markerWidth="10" markerHeight="10" orient="auto"><g transform="" style="fill: black; stroke-width: 2; stroke-linecap: round; stroke-dasharray: 10000, 1; stroke: rgb(0, 0, 0);"><rect x="1" y="1" width="18" height="18" rx="1" ry="1" style="fill: rgb(0, 0, 0);"/><path d="M12 0.8V5" transform="translate(-2, 5)" style="stroke-width: 2.3px; stroke-linecap: round; stroke: white;"/><circle cx="10" cy="14" r="0.21" style="fill: white; stroke: white;"/></g></marker><marker id="new-condition-flow-end-white-_000000-a3wcemzrqgaih600set9qki08-left-to-right-left-to-right" viewBox="0 0 20 20" refX="21" refY="10" markerWidth="10" markerHeight="10" orient="auto"><circle cx="10" cy="10" r="9" style="fill: white; stroke-width: 2; stroke-linecap: round; stroke-dasharray: 10000, 1; stroke: rgb(0, 0, 0);"/></marker><marker id="new-condition-flow-end-white-_000000-a3wcemzrqgaih600set9qki08-top-to-bottom-top-to-bottom" viewBox="0 0 20 20" refX="21" refY="10" markerWidth="10" markerHeight="10" orient="auto"><circle cx="10" cy="10" r="9" style="fill: white; stroke-width: 2; stroke-linecap: round; stroke-dasharray: 10000, 1; stroke: rgb(0, 0, 0);"/></marker><marker id="new-milestone-flow-end-white-_000000-a3wcemzrqgaih600set9qki08-right-to-left-right-to-left" viewBox="0 0 20 20" refX="21" refY="10" markerWidth="10" markerHeight="10" orient="auto"><g transform="rotate(180, 10, 10)" style="fill: black; stroke-width: 2; stroke-linecap: round; stroke-dasharray: 10000, 1; stroke: rgb(0, 0, 0);"><circle cx="10" cy="10" r="9" style="fill: rgb(0, 0, 0);"/><path d="M12 0.8V5" transform="translate(-2, 5)" style="stroke-width: 2.3px; stroke-linecap: round; stroke: white;"/><circle cx="10" cy="14" r="0.21" style="fill: white; stroke: white;"/></g></marker><marker id="new-response-flow-start-_000000-_000000-a3wcemzrqgaih600set9qki08-top-to-bottom-top-to-bottom" viewBox="0 0 20 20" refX="-0.6" refY="10" markerWidth="10" markerHeight="10" orient="auto"><g transform="rotate(270, 10, 10)" style="fill: black; stroke-width: 2; stroke-linecap: round; stroke-dasharray: 10000, 1; stroke: rgb(0, 0, 0);"><rect x="1" y="1" width="18" height="18" rx="1" ry="1" style="fill: rgb(0, 0, 0);"/><path d="M12 0.8V5" transform="translate(-2, 5)" style="stroke-width: 2.3px; stroke-linecap: round; stroke: white;"/><circle cx="10" cy="14" r="0.21" style="fill: white; stroke: white;"/></g></marker><marker id="proposed-response-flow-end-white-_000000-a3wcemzrqgaih600set9qki08-top-to-bottom-top-to-bottom" viewBox="0 0 20 20" refX="21" refY="10" markerWidth="10" markerHeight="10" orient="auto"><g transform="rotate(270, 10, 10)" style="fill: white; stroke-width: 2; stroke-linecap: round; stroke-dasharray: 10000, 1; stroke: rgb(0, 0, 0);"><circle cx="10" cy="10" r="9"/><path d="M12 0.8V5" transform="translate(-2, 5)" style="stroke-width: 2.3px; stroke-linecap: round;"/><circle cx="10" cy="14" r="0.21"/></g></marker><marker id="new-exclude-flow-start-_000000-_000000-a3wcemzrqgaih600set9qki08-right-to-left-right-to-left" viewBox="0 0 20 20" refX="-0.6" refY="10" markerWidth="10" markerHeight="10" orient="auto"><g transform="rotate(180, 10, 10)" style="fill: black; stroke-width: 2; stroke-linecap: round; stroke-dasharray: 10000, 1; stroke: rgb(0, 0, 0);"><rect x="1" y="1" width="18" height="18" rx="1" ry="1" style="fill: rgb(0, 0, 0);"/><path d="M16 12H10" transform="translate(-3, -2)" style="stroke-width: 2px; stroke-linecap: round; stroke: white;"/></g></marker><marker id="new-response-flow-start-_000000-_000000-a3wcemzrqgaih600set9qki08-right-to-left-right-to-left" viewBox="0 0 20 20" refX="-0.6" refY="10" markerWidth="10" markerHeight="10" orient="auto"><g transform="rotate(180, 10, 10)" style="fill: black; stroke-width: 2; stroke-linecap: round; stroke-dasharray: 10000, 1; stroke: rgb(0, 0, 0);"><rect x="1" y="1" width="18" height="18" rx="1" ry="1" style="fill: rgb(0, 0, 0);"/><path d="M12 0.8V5" transform="translate(-2, 5)" style="stroke-width: 2.3px; stroke-linecap: round; stroke: white;"/><circle cx="10" cy="14" r="0.21" style="fill: white; stroke: white;"/></g></marker></defs><g class="djs-group"><g class="djs-element djs-connection" data-element-id="Relation_0251g30" style="display: block;"><g class="djs-visual"><path d="m  640,285L440,285 " style="fill: none; stroke-width: 2px; stroke-linejoin: round; stroke: rgb(0, 0, 0); marker-end: url('#new-milestone-flow-end-white-_000000-a3wcemzrqgaih600set9qki08-right-to-left-right-to-left');"/></g><path d="M640,285L440,285" class="djs-hit djs-hit-stroke" style="fill: none; stroke-opacity: 0; stroke: white; stroke-width: 15px;"/><rect x="434" y="279" rx="4" width="212" height="12" class="djs-outline" style="fill: none;"/></g></g><g class="djs-group"><g class="djs-element djs-connection" data-element-id="Relation_0ru4n84" style="display: block;"><g class="djs-visual"><path d="m  375,360L375,560 " style="fill: none; stroke-width: 2px; stroke-linejoin: round; stroke: rgb(0, 0, 0); marker-start: url('#new-include-flow-start-_000000-_000000-a3wcemzrqgaih600set9qki08-top-to-bottom-top-to-bottom');"/></g><path d="M375,360L375,560" class="djs-hit djs-hit-stroke" style="fill: none; stroke-opacity: 0; stroke: white; stroke-width: 15px;"/><rect x="369" y="354" rx="4" width="12" height="212" class="djs-outline" style="fill: none;"/></g></g><g class="djs-group"><g class="djs-element djs-connection" data-element-id="Relation_0i5yrc8" style="display: block;"><g class="djs-visual"><path d="m  640,635L440,635 " style="fill: none; stroke-width: 2px; stroke-linejoin: round; stroke: rgb(0, 0, 0); marker-start: url('#new-exclude-flow-start-_000000-_000000-a3wcemzrqgaih600set9qki08-right-to-left-right-to-left');"/></g><path d="M640,635L440,635" class="djs-hit djs-hit-stroke" style="fill: none; stroke-opacity: 0; stroke: white; stroke-width: 15px;"/><rect x="434" y="629" rx="4" width="212" height="12" class="djs-outline" style="fill: none;"/></g></g><g class="djs-group"><g class="djs-element djs-connection" data-element-id="Relation_0stleiw" style="display: block;"><g class="djs-visual"><path d="m  970,285L770,285 " style="fill: none; stroke-width: 2px; stroke-linejoin: round; stroke: rgb(0, 0, 0); marker-start: url('#new-response-flow-start-_000000-_000000-a3wcemzrqgaih600set9qki08-right-to-left-right-to-left');"/></g><path d="M970,285L770,285" class="djs-hit djs-hit-stroke" style="fill: none; stroke-opacity: 0; stroke: white; stroke-width: 15px;"/><rect x="764" y="279" rx="4" width="212" height="12" class="djs-outline" style="fill: none;"/></g></g><g class="djs-group"><g class="djs-element djs-connection" data-element-id="Relation_0tnw2m4" style="display: block;"><g class="djs-visual"><path d="m  970,635L770,635 " style="fill: none; stroke-width: 2px; stroke-linejoin: round; stroke: rgb(0, 0, 0); marker-end: url('#new-condition-flow-end-white-_000000-a3wcemzrqgaih600set9qki08-right-to-left-right-to-left');"/></g><path d="M970,635L770,635" class="djs-hit djs-hit-stroke" style="fill: none; stroke-opacity: 0; stroke: white; stroke-width: 15px;"/><rect x="764" y="629" rx="4" width="212" height="12" class="djs-outline" style="fill: none;"/></g></g><g class="djs-group"><g class="djs-element djs-shape" data-element-id="Event_0xmiqkj" style="display: block;" transform="matrix(1 0 0 1 970 560)"><g class="djs-visual"><rect x="0" y="0" width="130" height="150" rx="7" ry="7" style="fill: white; fill-opacity: 0.35; stroke: black; stroke-width: 2px;"/><path style="fill: none; stroke: black; stroke-width: 2px;" d="M0,30L130,30"/><text lineHeight="1.2" class="djs-label" style="font-family: 'IBM Plex', sans-serif; font-size: 16px; font-weight: normal;"><tspan x="65" y="19.8"/></text><text lineHeight="1.2" class="djs-label" style="font-family: 'IBM Plex', sans-serif; font-size: 16px; font-weight: normal;"><tspan x="19.286457061767578" y="85.2">Design piece</tspan><tspan x="49.614583015441895" y="104.4">PKQ</tspan></text></g><rect class="djs-hit djs-hit-all" x="0" y="0" width="130" height="150" style="fill: none; stroke-opacity: 0; stroke: white; stroke-width: 15px;"/><rect x="-6" y="-6" rx="4" width="142" height="162" class="djs-outline" style="fill: none;"/></g></g><g class="djs-group"><g class="djs-element djs-shape" data-element-id="Event_0h79sl2" style="display: block;" transform="matrix(1 0 0 1 640 560)"><g class="djs-visual"><rect x="0" y="0" width="130" height="150" rx="7" ry="7" style="fill: white; fill-opacity: 0.35; stroke: black; stroke-width: 2px;"/><path style="fill: none; stroke: black; stroke-width: 2px;" d="M0,30L130,30"/><text lineHeight="1.2" class="djs-label" style="font-family: 'IBM Plex', sans-serif; font-size: 16px; font-weight: normal;"><tspan x="65" y="19.8"/></text><text lineHeight="1.2" class="djs-label" style="font-family: 'IBM Plex', sans-serif; font-size: 16px; font-weight: normal;"><tspan x="25.125" y="85.2">Build piece</tspan><tspan x="48.38400650024414" y="104.4">RMY</tspan></text></g><rect class="djs-hit djs-hit-all" x="0" y="0" width="130" height="150" style="fill: none; stroke-opacity: 0; stroke: white; stroke-width: 15px;"/><rect x="-6" y="-6" rx="4" width="142" height="162" class="djs-outline" style="fill: none;"/></g></g><g class="djs-group"><g class="djs-element djs-shape" data-element-id="Event_1etkv2g" style="display: block;" transform="matrix(1 0 0 1 310 560)"><g class="djs-visual"><rect x="0" y="0" width="130" height="150" rx="7" ry="7" style="fill: white; fill-opacity: 0.35; stroke: black; stroke-width: 2px; stroke-dasharray: 12, 5;"/><path style="fill: none; stroke: black; stroke-width: 2px; stroke-dasharray: 12, 5;" d="M0,30L130,30"/><text lineHeight="1.2" class="djs-label" style="font-family: 'IBM Plex', sans-serif; font-size: 16px; font-weight: normal;"><tspan x="65" y="19.8"/></text><text lineHeight="1.2" class="djs-label" style="font-family: 'IBM Plex', sans-serif; font-size: 16px; font-weight: normal;"><tspan x="31.390625" y="85.2">Cut piece</tspan><tspan x="51.046875" y="104.4">LVO</tspan></text></g><rect class="djs-hit djs-hit-all" x="0" y="0" width="130" height="150" style="fill: none; stroke-opacity: 0; stroke: white; stroke-width: 15px;"/><rect x="-6" y="-6" rx="4" width="142" height="162" class="djs-outline" style="fill: none;"/></g></g><g class="djs-group"><g class="djs-element djs-shape" data-element-id="Event_0uu9h4e" style="display: block;" transform="matrix(1 0 0 1 970 210)"><g class="djs-visual"><rect x="0" y="0" width="130" height="150" rx="7" ry="7" style="fill: white; fill-opacity: 0.35; stroke: black; stroke-width: 2px;"/><path style="fill: none; stroke: black; stroke-width: 2px;" d="M0,30L130,30"/><text lineHeight="1.2" class="djs-label" style="font-family: 'IBM Plex', sans-serif; font-size: 16px; font-weight: normal;"><tspan x="65" y="19.8"/></text><text lineHeight="1.2" class="djs-label" style="font-family: 'IBM Plex', sans-serif; font-size: 16px; font-weight: normal;"><tspan x="25.635414123535156" y="85.2">Align piece</tspan><tspan x="48.69270706176758" y="104.4">UHB</tspan></text></g><rect class="djs-hit djs-hit-all" x="0" y="0" width="130" height="150" style="fill: none; stroke-opacity: 0; stroke: white; stroke-width: 15px;"/><rect x="-6" y="-6" rx="4" width="142" height="162" class="djs-outline" style="fill: none;"/></g></g><g class="djs-group"><g class="djs-element djs-shape" data-element-id="Event_1t4nmz7" style="display: block;" transform="matrix(1 0 0 1 640 210)"><g class="djs-visual"><rect x="0" y="0" width="130" height="150" rx="7" ry="7" style="fill: white; fill-opacity: 0.35; stroke: black; stroke-width: 2px;"/><path style="fill: none; stroke: black; stroke-width: 2px;" d="M0,30L130,30"/><text lineHeight="1.2" class="djs-label" style="font-family: 'IBM Plex', sans-serif; font-size: 16px; font-weight: normal;"><tspan x="65" y="19.8"/></text><text lineHeight="1.2" class="djs-label" style="font-family: 'IBM Plex', sans-serif; font-size: 16px; font-weight: normal;"><tspan x="17.619789123535156" y="85.2">Stretch piece</tspan><tspan x="50.29166603088379" y="104.4">FTN</tspan></text></g><rect class="djs-hit djs-hit-all" x="0" y="0" width="130" height="150" style="fill: none; stroke-opacity: 0; stroke: white; stroke-width: 15px;"/><rect x="-6" y="-6" rx="4" width="142" height="162" class="djs-outline" style="fill: none;"/></g></g><g class="djs-group"><g class="djs-element djs-shape" data-element-id="Event_0oqka7s" style="display: block;" transform="matrix(1 0 0 1 310 210)"><g class="djs-visual"><rect x="0" y="0" width="130" height="150" rx="7" ry="7" style="fill: white; fill-opacity: 0.35; stroke: black; stroke-width: 2px;"/><path style="fill: none; stroke: black; stroke-width: 2px;" d="M0,30L130,30"/><text lineHeight="1.2" class="djs-label" style="font-family: 'IBM Plex', sans-serif; font-size: 16px; font-weight: normal;"><tspan x="65" y="19.8"/></text><text lineHeight="1.2" class="djs-label" style="font-family: 'IBM Plex', sans-serif; font-size: 16px; font-weight: normal;"><tspan x="28.614582061767578" y="85.2">Test piece</tspan><tspan x="49.33067321777344" y="104.4">DCA</tspan></text></g><rect class="djs-hit djs-hit-all" x="0" y="0" width="130" height="150" style="fill: none; stroke-opacity: 0; stroke: white; stroke-width: 15px;"/><rect x="-6" y="-6" rx="4" width="142" height="162" class="djs-outline" style="fill: none;"/></g></g></svg>